# xmcd
#
# Track frame offsets:
#	150
#	19805
#	39603
#	55962
#	76556
#	93720
#	109674
#	126015
#	147706
#	165867
#	194520
#	222026
#
# Disc length: 3789 seconds
#
# Revision: 1
# Processed by: cddbd v1.5.2PL0 Copyright (c) Steve Scherf et al.
# Submitted via: audiograbber 1.83.01
#
DISCID=a00ecb0c
DTITLE=Beats and Styles - Schizosonics
DYEAR=2009
DGENRE=Electronic
TTITLE0=15 Seconds Of Fame
TTITLE1=Friend
TTITLE2=Falling Down
TTITLE3=When It Feels So Natural
TTITLE4=Put Yours Here, I'll Put Mine There
TTITLE5=Shock To The System
TTITLE6=Live Fast, Die Young
TTITLE7=Tomorrow Here I Come
TTITLE8=Get Away
TTITLE9=Musical Healing
TTITLE10=Go! (Strength Of Mind)
TTITLE11=3 Videos
EXTD=TR.
EXTT0=
EXTT1=
EXTT2=
EXTT3=
EXTT4=
EXTT5=
EXTT6=
EXTT7=
EXTT8=
EXTT9=
EXTT10=
EXTT11=
PLAYORDER=
